<svg xmlns="http://www.w3.org/2000/svg" width="1500" height="351.45" viewBox="0 0 1356.451 351.45"><style>svg {    width: 100%;}.qmark {	transform: translate(1141.13px, 346.995px) rotate(0deg);}</style><g data-name="Group 3087" style="opacity:1"><path data-name="Path 18876" d="m0-35 94.8 287.268h66.892l59.1-204.781 57.858 204.781h66.892L440.75-35h-66.481l-59.916 216.682L253.616-35h-63.609l-59.916 216.682L69.765-35zm491.638 0v287.268h64.84V139h130.091v113.268h64.84V-35h-64.84V84.832H556.478V-35zm588.488 0h-65.251L943.058 93.86 869.6-35h-65.251l106.289 196.163v91.1h64.84v-92.742z" transform="translate(0 67.091)" style="fill:#f2f3f3"></path><path data-name="Path 18875" class="qmark" d="m1.485-238.1 58.905.5c1.485-31.185 16.83-46.53 44.055-46.53 25.245 0 40.59 10.89 40.59 34.65 0 51.975-63.855 54.945-63.855 132.66h57.42c0-61.38 76.725-68.805 76.725-145.035 0-54.945-40.59-85.14-103.95-85.14C44.055-347 2.97-306.9 1.485-238.1zM108.9-74.25c-21.78 0-38.115 15.84-38.115 39.1 0 22.77 16.335 39.6 38.115 39.6 22.275 0 38.115-16.83 38.115-39.6 0-23.26-15.84-39.1-38.115-39.1z" transform="translate(1141.126 346.995)" style="fill:#FFC30C"></path></g></svg>