<svg xmlns="http://www.w3.org/2000/svg" width="565.185" height="565.235" viewBox="0 0 565.185 565.235"><defs><style>      .cls-1 {        fill: #8cd437;      }    </style></defs><path id="Path_26877" data-name="Path 26877" class="cls-1" d="M657.593,379.46a280.709,280.709,0,0,0-90.9,15.041l7.975,7.975a271.307,271.307,0,0,1,82.924-12.92c150.256,0,272.5,122.3,272.5,272.548a271.2,271.2,0,0,1-12.871,82.875l7.975,7.975A281.97,281.97,0,0,0,940.185,662.1c0-155.858-126.735-282.642-282.593-282.642Zm0,555.14c-150.256,0-272.5-122.242-272.5-272.5a269.72,269.72,0,0,1,12.92-82.875l-8.024-8.024A282.048,282.048,0,0,0,375,662.1C375,817.91,501.785,944.7,657.593,944.7a282.033,282.033,0,0,0,90.9-14.991l-8.024-8.024A271.228,271.228,0,0,1,657.593,934.6Z" transform="translate(-375 -379.46)"></path></svg>