<svg xmlns="http://www.w3.org/2000/svg" id="Group_20696" data-name="Group 20696" width="145.379" height="104.953" viewBox="0 0 145.379 104.953"><defs><style>      .cls-1 {        fill: #8cd437;      }    </style></defs><path id="Path_23720" data-name="Path 23720" class="cls-1" d="M703.035,534.494a34.033,34.033,0,0,0-39.562-27.413c-18.5,3.357-30.7,21.779-29.264,39.666,1.655,20.733,14.995,46.595,45.416,64.324a2.974,2.974,0,0,0,4.054-4.033c-3.635-6.7-8.19-17.534-10.937-32.6A33.991,33.991,0,0,0,703.035,534.5Z" transform="translate(-558.208 -506.528)"></path><path id="Path_23721" data-name="Path 23721" class="cls-1" d="M520.135,534.494a34.033,34.033,0,0,0-39.562-27.413c-18.5,3.357-30.7,21.779-29.264,39.666,1.655,20.733,14.995,46.595,45.416,64.324a2.977,2.977,0,0,0,4.058-4.033c-3.635-6.7-8.19-17.534-10.937-32.6A33.991,33.991,0,0,0,520.139,534.5Z" transform="translate(-451.196 -506.528)"></path></svg>